<svg xmlns="http://www.w3.org/2000/svg" width="70" height="32" viewBox="0 0 70 32">
    <g fill="#006AFF" fill-rule="nonzero">
        <path d="M19.42 14.858a.687.687 0 0 0 .12-.525.714.714 0 0 0-.71-.584h-.125l-2.08.352.06-.2c.222-.773.55-1.932 1.043-3.22.784-.12 1.56-.288 2.324-.502 4.958-1.405 9.314-4.956 9.904-8.074.18-.749-.2-1.52-.906-1.843a3.193 3.193 0 0 0-1.37-.26c-2.056 0-5.357 1.268-7.329 3.394a19.828 19.828 0 0 0-3.665 6.015 38.462 38.462 0 0 1-4.688.25c-1.137 0-2.197-.033-3.057-.06-.579 0-1.075-.036-1.454-.036a4.637 4.637 0 0 0-.715.04 2.327 2.327 0 0 0-1.953 2.232 1.76 1.76 0 0 0 .66 1.395c.44.345 1.01.486 1.563.386a.704.704 0 0 0 .58-.754.708.708 0 0 0-.705-.64.693.693 0 0 0-.126 0 .452.452 0 0 1-.366-.074.38.38 0 0 1-.13-.313.926.926 0 0 1 .747-.85c.152-.01.304-.01.456 0 .36 0 .86 0 1.395.035h.028c.86.027 1.93.061 3.098.061a41.56 41.56 0 0 0 4.126-.181c-.39 1.067-.645 1.998-.832 2.645l-.132.436-.121.409-2 .386a3.25 3.25 0 0 0-2.114 1.063 2.932 2.932 0 0 0-.54 2.361c.055.347.358.601.712.6h.105a.705.705 0 0 0 .61-.791 1.622 1.622 0 0 1 .246-1.289c.288-.315.681-.519 1.107-.573l1.423-.26c-.743 2.563-2.376 8.114-3.326 9.91-1.649 3.091-3.832 4.795-6.149 4.795-.183 0-.365-.01-.546-.03h-.159c-1.724-.08-3.057-1.526-2.978-3.232 0-2.256 1.887-4.416 4.211-4.817a.711.711 0 0 0 .568-.45.699.699 0 0 0-.127-.708.717.717 0 0 0-.69-.229c-2.98.511-5.41 3.296-5.41 6.202-.092 2.468 1.856 4.543 4.352 4.636h.11c.226.023.46.034.682.034 2.877 0 5.513-1.973 7.424-5.552 1.059-1.984 2.821-8.055 3.622-10.817l2.762-.468a.718.718 0 0 0 .465-.305zm2-10.51c1.688-1.817 4.556-2.942 6.252-2.942.254-.011.509.03.746.124.1.05.172.081.125.329-.438 2.318-3.884 5.56-8.885 6.98-.39.113-.828.217-1.282.31a17.67 17.67 0 0 1 3.048-4.806l-.004.004zM69.486 5.78a.725.725 0 0 0-.902.475L65.38 16.612a.326.326 0 0 0 0 .044c-.2.776-.826 1.37-1.61 1.526a1.223 1.223 0 0 1-1.007-.228 1.132 1.132 0 0 1-.39-.895c.001-.186.033-.372.095-.548l2.261-7.482.46-1.37a.705.705 0 0 0 .031-.191.714.714 0 0 0-.708-.83.726.726 0 0 0-.692.507l-.44 1.463-2.806 8.87a2.18 2.18 0 0 1-1.652 1.57 1.231 1.231 0 0 1-1.007-.227 1.139 1.139 0 0 1-.39-.895c0-.188.032-.373.095-.55l.585-1.938 2.117-6.715 2.101-.368a.713.713 0 0 0-.125-1.416h-.125l-1.37.24.921-2.931a.717.717 0 0 0-.691-.914.715.715 0 0 0-.688.502L59.2 7.469l-2.027.353a.716.716 0 0 0-.468.294.706.706 0 0 0-.11.533.718.718 0 0 0 .71.591h.126l1.289-.223-2.93 9.298v.053a2.089 2.089 0 0 1-1.597 1.526 1.226 1.226 0 0 1-1.008-.227 1.14 1.14 0 0 1-.39-.9c0-.186.033-.371.095-.548l2.71-8.98a.708.708 0 0 0-.484-.89.728.728 0 0 0-.899.479l-2.718 8.964a3.09 3.09 0 0 0-.164.977c-.016.767.316 1.5.902 1.993a2.58 2.58 0 0 0 1.664.561c.175 0 .35-.014.523-.043a3.512 3.512 0 0 0 2.316-1.57c.072.079.15.152.23.22.615.494 1.416.69 2.188.538 1-.186 1.87-.796 2.388-1.675.089.104.187.2.292.288a2.58 2.58 0 0 0 1.664.585 3.095 3.095 0 0 0 1.015-.177l-2.12 6.826a.385.385 0 0 0 0 .047c-.2.774-.821 1.365-1.6 1.526a1.225 1.225 0 0 1-1.008-.228 1.135 1.135 0 0 1-.39-.895c.001-.187.034-.372.095-.548l.582-1.927a.715.715 0 0 0-.478-.889h-.006a.723.723 0 0 0-.899.48l-.573 1.91a3.09 3.09 0 0 0-.164.977 2.531 2.531 0 0 0 .902 1.99c.467.378 1.05.581 1.649.575.175 0 .35-.016.523-.047a3.54 3.54 0 0 0 2.734-2.577l3.217-10.356c.015-.05.024-.1.027-.152l2.96-9.522a.717.717 0 0 0-.467-.895l-.014-.004z"/>
        <path d="M50.713 18.503a.723.723 0 0 0-.87.521 2.072 2.072 0 0 1-1.59 1.506 1.23 1.23 0 0 1-1.005-.224 1.107 1.107 0 0 1-.39-.88c.002-.185.034-.367.095-.541l2.257-7.334c.051-.185.13-.362.234-.525.34-.561.942-.917 1.602-.95.196-.002.39.043.565.132a.724.724 0 0 0 .974-.305.696.696 0 0 0-.293-.944l-.013-.01a2.654 2.654 0 0 0-1.22-.282 3.477 3.477 0 0 0-2.841 1.604 3.273 3.273 0 0 0-.39.888l-1.59 5.169a.608.608 0 0 0-.046.112l-1.138 3.756a.29.29 0 0 0 0 .057c-.032.112-.08.218-.14.317a1.38 1.38 0 0 1-.92.652.761.761 0 0 1-.616-.13.672.672 0 0 1-.23-.538.789.789 0 0 1 0-.177l2.404-7.84v-.063c.033-.159.05-.32.051-.482a2.035 2.035 0 0 0-.744-1.613 2.125 2.125 0 0 0-1.369-.472 2.456 2.456 0 0 0-.424.034 2.82 2.82 0 0 0-1.745 1.066l-.028-.023a2.136 2.136 0 0 0-1.369-.472 2.46 2.46 0 0 0-.424.039 2.811 2.811 0 0 0-1.734 1.07l-.028-.02a2.134 2.134 0 0 0-1.368-.472c-.142 0-.284.012-.424.035a2.83 2.83 0 0 0-2.17 1.895.48.48 0 0 0-.025.062l-2.836 9.117v.042a2.073 2.073 0 0 1-1.595 1.502 1.236 1.236 0 0 1-1.005-.224 1.106 1.106 0 0 1-.39-.88c.002-.183.034-.366.096-.54l2.124-6.914c.173-.02.345-.052.514-.094 1.496-.386 2.436-1.604 2.56-2.548a1.154 1.154 0 0 0-.545-1.236 1.128 1.128 0 0 0-.562-.142 2.467 2.467 0 0 0-1.46.64 5.4 5.4 0 0 0-1.557 1.957 3.704 3.704 0 0 1-1.006-.432 2.881 2.881 0 0 0-1.04-.413h-.137c-1.193 0-1.66 1.605-1.777 2.112l-2.701 8.626v.043a2.071 2.071 0 0 1-1.62 1.501 1.238 1.238 0 0 1-1.006-.223 1.106 1.106 0 0 1-.39-.88c.002-.184.034-.367.096-.54l2.704-8.836a.678.678 0 0 0-.054-.537.708.708 0 0 0-.635-.366.72.72 0 0 0-.667.497l-2.698 8.82c-.106.31-.162.635-.163.962a2.469 2.469 0 0 0 .9 1.957c.468.38 1.056.583 1.66.574.175 0 .35-.015.522-.046a3.493 3.493 0 0 0 2.728-2.54l2.701-8.638v-.054c.076-.363.223-.708.433-1.015.15.065.296.14.436.224.403.232.836.41 1.287.528l-2.007 6.59c-.108.31-.163.636-.164.965a2.471 2.471 0 0 0 .9 1.956c.468.38 1.056.583 1.66.576.17-.003.34-.02.507-.051a3.492 3.492 0 0 0 2.728-2.54l2.83-9.04.026-.073a1.402 1.402 0 0 1 1.057-.965c.215-.048.44 0 .616.131.15.132.233.323.23.521.004.06.004.119 0 .178l-3.038 9.959a.702.702 0 0 0 .482.871h.004a.725.725 0 0 0 .893-.475l2.09-6.878a.6.6 0 0 0 .057-.131l1.14-3.752a1.288 1.288 0 0 1 .16-.382c.197-.337.532-.573.918-.649.215-.048.44 0 .616.131a.67.67 0 0 1 .23.536c.006.06.006.12 0 .179l-3.032 9.94a.7.7 0 0 0 .066.537.727.727 0 0 0 1.317-.14l2.085-6.863a.699.699 0 0 0 .067-.146l1.144-3.748.023-.062a1.24 1.24 0 0 1 .14-.317c.199-.335.532-.57.916-.648a.753.753 0 0 1 .62.131c.154.134.24.33.23.532a.92.92 0 0 1 0 .178l-2.404 7.852v.059c-.033.159-.05.32-.05.483-.012.62.26 1.213.739 1.611a2.2 2.2 0 0 0 1.792.44 2.834 2.834 0 0 0 1.887-1.321l.03-.055c.05.05.102.097.157.14.613.487 1.412.68 2.182.528a3.494 3.494 0 0 0 2.728-2.56.702.702 0 0 0-.518-.849h-.01zm-18.678-5.921c.172 1.123-1.668 1.321-1.668 1.321s1.499-2.44 1.67-1.321h-.002zM21.333 11.984a1.333 1.333 0 1 0 1.358-1.317h-.02a1.333 1.333 0 0 0-1.338 1.317zM55.35 7.333a1.333 1.333 0 1 0-.033-2.666 1.333 1.333 0 0 0 .033 2.666z"/>
    </g>
</svg>
