<?xml version="1.0" encoding="UTF-8"?>
<svg width="13px" height="16px" viewBox="0 0 13 16" version="1.1" xmlns="http://www.w3.org/2000/svg" xmlns:xlink="http://www.w3.org/1999/xlink">
    <!-- Generator: sketchtool 49.3 (51167) - http://www.bohemiancoding.com/sketch -->
    <title>7B491710-0EB4-478D-B4E5-4D4B843463F2</title>
    <desc>Created with sketchtool.</desc>
    <defs></defs>
    <g id="Challenges" stroke="none" stroke-width="1" fill="none" fill-rule="evenodd">
        <g id="03_Challenges--Challenges_task_2" transform="translate(-314.000000, -666.000000)" fill="#FFFFFF">
            <g id="Group-6" transform="translate(70.000000, 628.000000)">
                <g id="Bitmap" transform="translate(172.000000, 0.000000)">
                    <path d="M73.625,52.4761905 L83.375,52.4761905 L83.375,44.8571429 L73.625,44.8571429 L73.625,52.4761905 Z M75.98125,41.8095238 C75.98125,40.5066667 77.110625,39.447619 78.5,39.447619 C79.889375,39.447619 81.01875,40.5066667 81.01875,41.8095238 L81.01875,43.3333333 L75.98125,43.3333333 L75.98125,41.8095238 Z M83.375,43.3333333 L82.5625,43.3333333 L82.5625,41.8095238 C82.5625,39.7066667 80.7425,38 78.5,38 C76.2575,38 74.4375,39.7066667 74.4375,41.8095238 L74.4375,43.3333333 L73.625,43.3333333 C72.73125,43.3333333 72,44.0190476 72,44.8571429 L72,52.4761905 C72,53.3142857 72.73125,54 73.625,54 L83.375,54 C84.26875,54 85,53.3142857 85,52.4761905 L85,44.8571429 C85,44.0190476 84.26875,43.3333333 83.375,43.3333333 Z M78.5,50.1904762 C79.39375,50.1904762 80.125,49.5047619 80.125,48.6666667 C80.125,47.8285714 79.39375,47.1428571 78.5,47.1428571 C77.60625,47.1428571 76.875,47.8285714 76.875,48.6666667 C76.875,49.5047619 77.60625,50.1904762 78.5,50.1904762 Z" id="icons/lock"></path>
                </g>
            </g>
        </g>
    </g>
</svg>