<?xml version="1.0" encoding="UTF-8"?>
<svg width="16px" height="16px" viewBox="0 0 16 16" version="1.1" xmlns="http://www.w3.org/2000/svg" xmlns:xlink="http://www.w3.org/1999/xlink">
    <!-- Generator: sketchtool 49.3 (51167) - http://www.bohemiancoding.com/sketch -->
    <title>1B53D391-5BAD-4534-B18F-3B1B31C6CECC</title>
    <desc>Created with sketchtool.</desc>
    <defs></defs>
    <g id="Challenges" stroke="none" stroke-width="1" fill="none" fill-rule="evenodd">
        <g id="03_Challenges--Challenges_task_2" transform="translate(-87.000000, -433.000000)" fill="#FFFFFF">
            <g id="Group-5" transform="translate(71.000000, 417.000000)">
                <path d="M24,30.4 C20.472,30.4 17.6,27.528 17.6,24 C17.6,20.472 20.472,17.6 24,17.6 C27.528,17.6 30.4,20.472 30.4,24 C30.4,27.528 27.528,30.4 24,30.4 Z M24,16 C19.584,16 16,19.584 16,24 C16,28.416 19.584,32 24,32 C28.416,32 32,28.416 32,24 C32,19.584 28.416,16 24,16 Z M22.4,27.6 L27.2,24 L22.4,20.4 L22.4,27.6 Z" id="Page-1"></path>
            </g>
        </g>
    </g>
</svg>